<svg xmlns="http://www.w3.org/2000/svg" viewBox="0 0 960 720" role="img" aria-labelledby="title desc">
  <title id="title">Affiliate Hub Pro game illustration</title>
  <desc id="desc">Dashboard-style hero image for Affiliate Hub Pro with score cards, bars, and a simple growth panel.</desc>
  <defs>
    <linearGradient id="bg" x1="42" y1="22" x2="900" y2="692" gradientUnits="userSpaceOnUse">
      <stop offset="0" stop-color="#fff9ef"/>
      <stop offset="1" stop-color="#eddcc6"/>
    </linearGradient>
    <linearGradient id="surface" x1="110" y1="90" x2="820" y2="610" gradientUnits="userSpaceOnUse">
      <stop offset="0" stop-color="#fffefb"/>
      <stop offset="1" stop-color="#fff7ec"/>
    </linearGradient>
    <linearGradient id="accent" x1="150" y1="208" x2="520" y2="520" gradientUnits="userSpaceOnUse">
      <stop offset="0" stop-color="#de6238"/>
      <stop offset="1" stop-color="#f2b24c"/>
    </linearGradient>
    <linearGradient id="teal" x1="150" y1="248" x2="480" y2="580" gradientUnits="userSpaceOnUse">
      <stop offset="0" stop-color="#17908c"/>
      <stop offset="1" stop-color="#0f6f6a"/>
    </linearGradient>
    <filter id="shadow" x="-20%" y="-20%" width="140%" height="140%">
      <feDropShadow dx="0" dy="20" stdDeviation="20" flood-color="#8a3026" flood-opacity="0.16"/>
    </filter>
  </defs>
  <rect width="960" height="720" rx="36" fill="url(#bg)"/>
  <circle cx="140" cy="112" r="92" fill="#db5c34" fill-opacity="0.08"/>
  <circle cx="810" cy="136" r="118" fill="#127c78" fill-opacity="0.08"/>
  <g filter="url(#shadow)">
    <rect x="88" y="88" width="784" height="544" rx="40" fill="url(#surface)" stroke="#172024" stroke-opacity="0.08"/>
    <rect x="116" y="116" width="728" height="42" rx="21" fill="#172024" fill-opacity="0.06"/>
    <circle cx="148" cy="137" r="7" fill="#db5c34" fill-opacity="0.55"/>
    <circle cx="171" cy="137" r="7" fill="#d89616" fill-opacity="0.55"/>
    <circle cx="194" cy="137" r="7" fill="#127c78" fill-opacity="0.55"/>
    <rect x="126" y="186" width="220" height="126" rx="24" fill="#fff1e7"/>
    <rect x="370" y="186" width="220" height="126" rx="24" fill="#eef9f7"/>
    <rect x="614" y="186" width="220" height="126" rx="24" fill="#fff7ed"/>
    <rect x="126" y="340" width="400" height="230" rx="28" fill="#ffffff"/>
    <rect x="550" y="340" width="284" height="104" rx="24" fill="#fff5ee"/>
    <rect x="550" y="466" width="284" height="104" rx="24" fill="#f2faf8"/>
  </g>
  <g font-family="Arial, Helvetica, sans-serif" fill="#172024">
    <text x="152" y="228" font-size="22" font-weight="700">Offer Fit</text>
    <text x="152" y="282" font-size="58" font-weight="700">124</text>
    <text x="396" y="228" font-size="22" font-weight="700">Trust</text>
    <text x="396" y="282" font-size="58" font-weight="700">68</text>
    <text x="640" y="228" font-size="22" font-weight="700">EPC</text>
    <text x="640" y="282" font-size="58" font-weight="700">$3.42</text>
    <text x="154" y="386" font-size="28" font-weight="700">Traffic Mix</text>
    <text x="576" y="382" font-size="24" font-weight="700">Winning Pattern</text>
    <text x="576" y="508" font-size="24" font-weight="700">Best Channel</text>
    <text x="576" y="544" font-size="44" font-weight="700">Search</text>
  </g>
  <g>
    <rect x="154" y="414" width="334" height="38" rx="16" fill="#172024" fill-opacity="0.06"/>
    <rect x="154" y="468" width="296" height="38" rx="16" fill="#172024" fill-opacity="0.06"/>
    <rect x="154" y="522" width="268" height="38" rx="16" fill="#172024" fill-opacity="0.06"/>
    <rect x="154" y="414" width="250" height="38" rx="16" fill="url(#accent)"/>
    <rect x="154" y="468" width="206" height="38" rx="16" fill="url(#teal)"/>
    <rect x="154" y="522" width="156" height="38" rx="16" fill="#172024" fill-opacity="0.16"/>
    <rect x="576" y="404" width="78" height="28" rx="14" fill="#de6238" fill-opacity="0.14"/>
    <rect x="666" y="404" width="72" height="28" rx="14" fill="#127c78" fill-opacity="0.14"/>
    <rect x="750" y="404" width="58" height="28" rx="14" fill="#172024" fill-opacity="0.08"/>
  </g>
  <g font-family="Arial, Helvetica, sans-serif" font-size="18" font-weight="700" fill="#172024">
    <text x="172" y="439">Search</text>
    <text x="172" y="493">Email</text>
    <text x="172" y="547">Community</text>
    <text x="593" y="423">Intent</text>
    <text x="682" y="423">Trust</text>
    <text x="764" y="423">EPC</text>
  </g>
  <g>
    <path d="M610 530 C654 506 692 482 732 438 C760 408 786 372 808 328" fill="none" stroke="#ebb04d" stroke-width="18" stroke-linecap="round"/>
    <path d="M776 328 H818 V370" fill="none" stroke="#ebb04d" stroke-width="18" stroke-linecap="round" stroke-linejoin="round"/>
  </g>
</svg>
