<svg xmlns="http://www.w3.org/2000/svg" viewBox="0 0 560 180" role="img" aria-labelledby="title desc">
  <title id="title">Affiliate Hub Pro logo</title>
  <desc id="desc">Affiliate Hub Pro logo with a chart badge and compact wordmark.</desc>
  <defs>
    <linearGradient id="badge" x1="18" y1="18" x2="146" y2="146" gradientUnits="userSpaceOnUse">
      <stop offset="0" stop-color="#fff8ee"/>
      <stop offset="1" stop-color="#efdec7"/>
    </linearGradient>
    <linearGradient id="accent" x1="34" y1="38" x2="118" y2="94" gradientUnits="userSpaceOnUse">
      <stop offset="0" stop-color="#de6238"/>
      <stop offset="1" stop-color="#f2b24c"/>
    </linearGradient>
    <linearGradient id="teal" x1="80" y1="52" x2="96" y2="120" gradientUnits="userSpaceOnUse">
      <stop offset="0" stop-color="#17908c"/>
      <stop offset="1" stop-color="#0f6f6a"/>
    </linearGradient>
  </defs>
  <rect width="560" height="180" rx="32" fill="none"/>
  <g transform="translate(18 18)">
    <rect width="144" height="144" rx="34" fill="url(#badge)"/>
    <rect x="1" y="1" width="142" height="142" rx="33" fill="none" stroke="#172024" stroke-opacity="0.08"/>
    <rect x="28" y="92" width="18" height="30" rx="9" fill="#172024" fill-opacity="0.12"/>
    <rect x="56" y="72" width="18" height="50" rx="9" fill="#172024" fill-opacity="0.18"/>
    <rect x="84" y="50" width="18" height="72" rx="9" fill="url(#teal)"/>
    <path d="M34 78 C49 68 61 64 73 60 C86 56 98 44 114 26" fill="none" stroke="url(#accent)" stroke-width="12" stroke-linecap="round"/>
    <path d="M100 26 H118 V44" fill="none" stroke="url(#accent)" stroke-width="12" stroke-linecap="round" stroke-linejoin="round"/>
  </g>
  <g transform="translate(192 36)">
    <text x="0" y="30" font-family="Arial, Helvetica, sans-serif" font-size="22" font-weight="700" letter-spacing="2" fill="#127c78">AFFILIATE HUB PRO</text>
    <text x="0" y="82" font-family="Trebuchet MS, Verdana, Arial, sans-serif" font-size="44" font-weight="700" letter-spacing="-1.2" fill="#172024">Affiliate Marketing</text>
    <text x="0" y="124" font-family="Trebuchet MS, Verdana, Arial, sans-serif" font-size="40" font-weight="700" letter-spacing="-1" fill="#172024">Simulator</text>
    <text x="0" y="148" font-family="Arial, Helvetica, sans-serif" font-size="18" fill="#5a6267">Offers. Traffic. Trust. EPC.</text>
  </g>
</svg>
