<svg xmlns="http://www.w3.org/2000/svg" viewBox="0 0 560 180" role="img" aria-labelledby="title desc">
  <title id="title">Affiliate Hub Pro logo</title>
  <desc id="desc">Affiliate Hub Pro wordmark with a premium chart badge and strategy-focused tagline.</desc>
  <defs>
    <linearGradient id="badge" x1="26" y1="18" x2="152" y2="158" gradientUnits="userSpaceOnUse">
      <stop offset="0" stop-color="#fff9ef"/>
      <stop offset="1" stop-color="#efdfca"/>
    </linearGradient>
    <linearGradient id="line" x1="40" y1="42" x2="126" y2="108" gradientUnits="userSpaceOnUse">
      <stop offset="0" stop-color="#de6238"/>
      <stop offset="1" stop-color="#f3b24b"/>
    </linearGradient>
    <linearGradient id="teal" x1="78" y1="56" x2="102" y2="128" gradientUnits="userSpaceOnUse">
      <stop offset="0" stop-color="#17908c"/>
      <stop offset="1" stop-color="#0f6f6a"/>
    </linearGradient>
  </defs>
  <rect width="560" height="180" rx="36" fill="none"/>
  <g transform="translate(18 18)">
    <rect width="144" height="144" rx="36" fill="url(#badge)"/>
    <rect x="1" y="1" width="142" height="142" rx="35" fill="none" stroke="#172024" stroke-opacity="0.08"/>
    <circle cx="108" cy="34" r="18" fill="#127c78" fill-opacity="0.12"/>
    <rect x="26" y="92" width="18" height="30" rx="9" fill="#172024" fill-opacity="0.12"/>
    <rect x="55" y="74" width="18" height="48" rx="9" fill="#172024" fill-opacity="0.18"/>
    <rect x="84" y="52" width="18" height="70" rx="9" fill="url(#teal)"/>
    <path d="M34 78 C47 68 58 62 72 61 C85 60 97 48 114 28" fill="none" stroke="url(#line)" stroke-width="13" stroke-linecap="round"/>
    <path d="M101 28 H118 V45" fill="none" stroke="url(#line)" stroke-width="13" stroke-linecap="round" stroke-linejoin="round"/>
    <circle cx="112" cy="33" r="8" fill="#172024"/>
  </g>
  <g transform="translate(192 30)">
    <text x="0" y="48" font-family="Trebuchet MS, Verdana, Arial, sans-serif" font-size="26" font-weight="700" letter-spacing="1.8" fill="#127c78">AFFILIATE HUB PRO</text>
    <text x="0" y="100" font-family="Trebuchet MS, Verdana, Arial, sans-serif" font-size="44" font-weight="700" letter-spacing="-1.4" fill="#172024">Affiliate Marketing Simulator</text>
    <text x="0" y="136" font-family="Arial, Helvetica, sans-serif" font-size="19" fill="#5a6267">Offers, channels, trust, and EPC in one browser game.</text>
  </g>
</svg>
