<svg xmlns="http://www.w3.org/2000/svg" viewBox="0 0 1200 630" role="img" aria-labelledby="title desc">
  <title id="title">Affiliate Hub Pro Open Graph image</title>
  <desc id="desc">Share graphic for Affiliate Hub Pro showing the affiliate marketing simulator brand and dashboard metrics.</desc>
  <defs>
    <linearGradient id="bg" x1="0" y1="0" x2="1" y2="1">
      <stop offset="0%" stop-color="#fff8eb"/>
      <stop offset="45%" stop-color="#f5ead9"/>
      <stop offset="100%" stop-color="#eedfcb"/>
    </linearGradient>
    <linearGradient id="accent" x1="0" y1="0" x2="1" y2="1">
      <stop offset="0%" stop-color="#db5c34"/>
      <stop offset="100%" stop-color="#efb14c"/>
    </linearGradient>
    <linearGradient id="teal" x1="0" y1="0" x2="1" y2="1">
      <stop offset="0%" stop-color="#127c78"/>
      <stop offset="100%" stop-color="#1fa79f"/>
    </linearGradient>
    <filter id="shadow" x="-20%" y="-20%" width="140%" height="140%">
      <feDropShadow dx="0" dy="22" stdDeviation="20" flood-color="#172024" flood-opacity="0.12"/>
    </filter>
  </defs>
  <rect width="1200" height="630" fill="url(#bg)"/>
  <circle cx="128" cy="120" r="110" fill="#db5c34" fill-opacity="0.12"/>
  <circle cx="1018" cy="124" r="126" fill="#127c78" fill-opacity="0.10"/>
  <g transform="translate(86 86)">
    <rect width="122" height="122" rx="30" fill="#fffdf7" stroke="#172024" stroke-opacity="0.08"/>
    <rect x="22" y="78" width="14" height="22" rx="7" fill="#172024" fill-opacity="0.16"/>
    <rect x="45" y="60" width="14" height="40" rx="7" fill="#172024" fill-opacity="0.18"/>
    <rect x="68" y="38" width="14" height="62" rx="7" fill="url(#teal)"/>
    <path d="M26 62 C38 53 47 49 58 50 C70 51 78 42 95 24" fill="none" stroke="url(#accent)" stroke-width="10" stroke-linecap="round"/>
    <path d="M85 24 H100 V40" fill="none" stroke="url(#accent)" stroke-width="10" stroke-linecap="round" stroke-linejoin="round"/>
  </g>
  <g transform="translate(242 118)" fill="#172024">
    <text x="0" y="0" dominant-baseline="hanging" font-family="'Space Grotesk', 'IBM Plex Sans', sans-serif" font-size="68" font-weight="700" letter-spacing="-2.4">Affiliate Hub Pro</text>
    <text x="0" y="98" font-family="'Space Grotesk', 'IBM Plex Sans', sans-serif" font-size="64" font-weight="700" letter-spacing="-2.2">Affiliate Marketing Simulator</text>
    <text x="0" y="156" font-family="'IBM Plex Sans', sans-serif" font-size="30" fill="#5a6267">Practice offers, channels, trust, EPC, and compounding strategy in the browser.</text>
  </g>
  <g filter="url(#shadow)" transform="translate(712 140)">
    <rect width="392" height="340" rx="34" fill="#fffdf8" stroke="#172024" stroke-opacity="0.08"/>
    <rect x="28" y="30" width="154" height="108" rx="22" fill="#fff2ea"/>
    <rect x="210" y="30" width="154" height="108" rx="22" fill="#f2fbf9"/>
    <rect x="28" y="164" width="336" height="34" rx="14" fill="#172024" fill-opacity="0.06"/>
    <rect x="28" y="216" width="270" height="34" rx="14" fill="#172024" fill-opacity="0.06"/>
    <rect x="28" y="268" width="228" height="34" rx="14" fill="#172024" fill-opacity="0.06"/>
    <rect x="28" y="164" width="252" height="34" rx="14" fill="url(#accent)"/>
    <rect x="28" y="216" width="218" height="34" rx="14" fill="#127c78" fill-opacity="0.88"/>
    <rect x="28" y="268" width="176" height="34" rx="14" fill="#172024" fill-opacity="0.16"/>
    <text x="52" y="72" font-family="'IBM Plex Sans', sans-serif" font-size="24" font-weight="700" fill="#172024">Offer Fit</text>
    <text x="52" y="110" font-family="'IBM Plex Sans', sans-serif" font-size="42" font-weight="700" fill="#172024">124</text>
    <text x="234" y="72" font-family="'IBM Plex Sans', sans-serif" font-size="24" font-weight="700" fill="#172024">EPC</text>
    <text x="234" y="110" font-family="'IBM Plex Sans', sans-serif" font-size="42" font-weight="700" fill="#172024">$3.42</text>
  </g>
  <g transform="translate(88 418)">
    <rect width="534" height="112" rx="26" fill="#fffdf7" fill-opacity="0.82" stroke="#172024" stroke-opacity="0.08"/>
    <text x="32" y="46" font-family="'IBM Plex Sans', sans-serif" font-size="26" font-weight="700" fill="#172024">Built for long-tail searches:</text>
    <text x="32" y="82" font-family="'IBM Plex Sans', sans-serif" font-size="24" fill="#5a6267">affiliate marketing simulator, affiliate marketing game, learn affiliate marketing</text>
  </g>
</svg>
