<svg xmlns="http://www.w3.org/2000/svg" viewBox="0 0 1200 630" role="img" aria-labelledby="title desc">
  <title id="title">Affiliate Hub Pro Open Graph image</title>
  <desc id="desc">Open Graph card for Affiliate Hub Pro with a clean title block and simplified dashboard panel.</desc>
  <defs>
    <linearGradient id="bg" x1="54" y1="22" x2="1138" y2="608" gradientUnits="userSpaceOnUse">
      <stop offset="0" stop-color="#fff9ef"/>
      <stop offset="1" stop-color="#eddcc6"/>
    </linearGradient>
    <linearGradient id="accent" x1="84" y1="84" x2="1074" y2="346" gradientUnits="userSpaceOnUse">
      <stop offset="0" stop-color="#de6238"/>
      <stop offset="1" stop-color="#f2b24c"/>
    </linearGradient>
    <linearGradient id="teal" x1="838" y1="196" x2="940" y2="382" gradientUnits="userSpaceOnUse">
      <stop offset="0" stop-color="#17908c"/>
      <stop offset="1" stop-color="#0f6f6a"/>
    </linearGradient>
    <filter id="shadow" x="-20%" y="-20%" width="140%" height="140%">
      <feDropShadow dx="0" dy="22" stdDeviation="22" flood-color="#172024" flood-opacity="0.12"/>
    </filter>
  </defs>
  <rect width="1200" height="630" fill="url(#bg)"/>
  <circle cx="122" cy="112" r="112" fill="#db5c34" fill-opacity="0.1"/>
  <circle cx="1048" cy="108" r="122" fill="#127c78" fill-opacity="0.09"/>
  <g transform="translate(84 84)">
    <rect width="126" height="126" rx="32" fill="#fffdf8"/>
    <rect x="1" y="1" width="124" height="124" rx="31" fill="none" stroke="#172024" stroke-opacity="0.08"/>
    <rect x="24" y="78" width="16" height="24" rx="8" fill="#172024" fill-opacity="0.14"/>
    <rect x="50" y="58" width="16" height="44" rx="8" fill="#172024" fill-opacity="0.18"/>
    <rect x="76" y="36" width="16" height="66" rx="8" fill="url(#teal)"/>
    <path d="M28 62 C42 54 53 50 63 46 C76 42 88 34 102 20" fill="none" stroke="url(#accent)" stroke-width="10" stroke-linecap="round"/>
    <path d="M88 20 H104 V36" fill="none" stroke="url(#accent)" stroke-width="10" stroke-linecap="round" stroke-linejoin="round"/>
  </g>
  <g transform="translate(246 110)">
    <text x="0" y="0" font-family="Arial, Helvetica, sans-serif" font-size="28" font-weight="700" letter-spacing="2" fill="#127c78">AFFILIATE HUB PRO</text>
    <text x="0" y="86" font-family="Trebuchet MS, Verdana, Arial, sans-serif" font-size="70" font-weight="700" letter-spacing="-2">Affiliate Marketing</text>
    <text x="0" y="154" font-family="Trebuchet MS, Verdana, Arial, sans-serif" font-size="70" font-weight="700" letter-spacing="-2">Simulator</text>
    <text x="0" y="218" font-family="Arial, Helvetica, sans-serif" font-size="28" fill="#5a6267">Practice offers, trust, traffic, and EPC.</text>
    <rect x="0" y="266" width="318" height="56" rx="18" fill="#fffdf8" stroke="#172024" stroke-opacity="0.08"/>
    <text x="26" y="302" font-family="Arial, Helvetica, sans-serif" font-size="24" font-weight="700" fill="#172024">Free browser-based game</text>
  </g>
  <g transform="translate(760 144)" filter="url(#shadow)">
    <rect width="360" height="340" rx="34" fill="#fffdf8" stroke="#172024" stroke-opacity="0.08"/>
    <rect x="28" y="28" width="304" height="22" rx="11" fill="#172024" fill-opacity="0.06"/>
    <rect x="28" y="78" width="140" height="102" rx="22" fill="#fff1e7"/>
    <rect x="192" y="78" width="140" height="102" rx="22" fill="#eef9f7"/>
    <rect x="28" y="214" width="274" height="30" rx="14" fill="#172024" fill-opacity="0.06"/>
    <rect x="28" y="264" width="222" height="30" rx="14" fill="#172024" fill-opacity="0.06"/>
    <rect x="28" y="214" width="214" height="30" rx="14" fill="url(#accent)"/>
    <rect x="28" y="264" width="176" height="30" rx="14" fill="url(#teal)"/>
    <text x="48" y="118" font-family="Arial, Helvetica, sans-serif" font-size="24" font-weight="700" fill="#172024">Offer</text>
    <text x="48" y="160" font-family="Arial, Helvetica, sans-serif" font-size="42" font-weight="700" fill="#172024">124</text>
    <text x="212" y="118" font-family="Arial, Helvetica, sans-serif" font-size="24" font-weight="700" fill="#172024">EPC</text>
    <text x="212" y="160" font-family="Arial, Helvetica, sans-serif" font-size="42" font-weight="700" fill="#172024">$3.42</text>
  </g>
</svg>
